<?xml version="1.0" encoding="UTF-8" standalone="no"?>
<!-- Created with Inkscape (http://www.inkscape.org/) -->

<svg
   width="145.15947mm"
   height="145.88199mm"
   viewBox="0 0 145.15947 145.88199"
   version="1.1"
   id="svg1"
   xml:space="preserve"
   xmlns="http://www.w3.org/2000/svg"
   xmlns:svg="http://www.w3.org/2000/svg"><defs
     id="defs1" /><g
     id="layer2"
     transform="translate(-25.530657,-71.657591)"><path
       style="display:inline;fill:none;stroke:#000000;stroke-width:1.365;stroke-dasharray:none"
       d="m 56.162119,84.819198 c 0,0 0.432015,-2.736101 -7.200273,-5.760217 -7.632287,-3.024114 -16.560625,-1.728065 -18.000678,1.440055 -1.440055,3.168118 -6.480245,14.976565 0.144005,22.176834 6.624251,7.20027 3.600135,8.64033 8.928338,9.07234 5.3282,0.43202 -5.040191,5.3282 -5.040191,5.3282 l 4.608174,-1.72806 -5.184195,5.18419 3.45613,-1.15204 -2.160082,2.4481 2.880108,-0.86404 -2.160082,3.60014 2.448095,0.43201 -2.880109,3.45613 5.3282,-1.29604 -3.600135,3.02411 2.448092,2.01608 v 0 l 0.986412,5.224 1.45529,0.6237 2.702682,2.49478 -1.663189,2.70268 h 3.742175 l 1.247392,-1.03949 v 2.70268 l 0.207899,3.11848 c 0,0 3.534276,0.6237 2.91058,4.15797 -0.623696,3.53428 7.900148,4.57377 7.900148,4.57377 l 1.45529,0.6237 1.455291,1.87109 0.831594,1.03949 1.663189,-0.6237 4.365871,2.49479 2.286885,0.2079 v -0.2079"
       id="path1" /><path
       style="fill:#000000;stroke:#000000;stroke-width:1.365;stroke-dasharray:none"
       d="m 69.731783,117.10681 -1.996138,3.19382 5.056886,-2.52844 -4.258429,5.05689 7.984553,-4.79074 -4.125351,5.18996 6.254567,-3.32689 -5.988418,5.58919 6.387645,-2.7946"
       id="path3" /><path
       style="fill:#000000;stroke:#000000;stroke-width:1.365;stroke-dasharray:none"
       d="m 111.92717,120.67301 6.48568,-5.01166 -4.42206,5.89607 7.56663,-5.10993 -6.87875,6.48569 8.35277,-4.42206 -3.93071,4.02899 5.40473,-2.4567 -2.94804,4.02898"
       id="path4" /><path
       style="fill:none;stroke:#000000;stroke-width:1.365;stroke-dasharray:none"
       d="m 45.122433,106.45507 11.371336,-19.234495 -0.967772,3.02429 5.685669,-6.411497 -3.871095,6.290527 6.048584,-6.653442 -8.588989,14.274657 8.709961,-13.790772 4.354979,-0.12097 -5.564696,7.137329 8.709959,-10.887451 3.992068,-2.540405 -2.298462,3.62915 15.242429,-8.468016 -7.984131,5.564695 11.855225,-5.927611 20.202272,0.12097 3.99206,2.056519 c 0,0 8.58899,3.266236 18.26672,4.113038 9.67774,0.846802 11.18487,6.327506 11.78973,4.512933 0.60485,-1.814576 10.62649,-5.871618 15.58633,-4.540931 4.95984,1.330688 7.14736,4.001572 7.14736,4.001572 0,0 2.3411,4.473506 0.49905,15.19088 -1.84205,10.71737 -17.08081,19.25778 -17.08081,19.25778 l -0.66984,4.68885 3.6841,1.00476 -4.35394,2.34442 1.33968,0.16746 -2.34443,5.02377 3.01426,0.50238 -0.16746,3.85155 0.33492,3.01427 c 0,0 -1.67459,5.86106 -6.02852,10.88483 -4.35393,5.02377 0.33492,0.16746 0.33492,0.16746"
       id="path5" /><path
       style="fill:none;stroke:#000000;stroke-width:1.365;stroke-dasharray:none"
       d="m 79.239725,126.91979 c 0,0 -3.178669,4.76801 -5.903245,11.12535 -2.724576,6.35734 -3.405719,12.48763 -3.405719,12.48763 l 2.043432,4.08687 -1.362289,4.08686 3.405719,2.04343 v 4.08686 c 0,0 6.130295,7.26554 11.352395,7.03849 5.222102,-0.22705 1.589336,1.36229 1.589336,1.36229 l 2.724576,0.22704 -1.13524,1.13524 6.130293,-0.45409 -3.632766,1.58933 h 7.946678 c 0,0 9.308965,-5.67619 10.444205,-4.768 1.13524,0.90819 2.95162,-6.35735 4.99505,-6.1303 2.04344,0.22705 4.99506,-5.44915 4.99506,-5.44915 l -0.90819,-4.768 1.81638,-4.31391 -2.04343,-1.58934 3.40572,-3.63277 -2.04344,-5.6762"
       id="path6" /><path
       style="fill:none;stroke:#000000;stroke-width:1.365;stroke-dasharray:none"
       d="m 103.7609,142.5861 c 0,0 3.40572,2.04343 2.95162,5.90324 -0.45409,3.85982 -1.58933,7.94668 -4.768,9.53601 -3.178674,1.58934 -10.898303,3.85982 -13.622876,0.68115 -2.724576,-3.17867 -6.130296,-9.53601 -1.816386,-15.66631 4.313912,-6.13029 10.671254,-4.99505 10.671254,-4.99505 z"
       id="path7" /><path
       style="display:inline;opacity:1;fill:#000000;stroke:#000000;stroke-width:1.365;stroke-dasharray:none"
       d="m 89.002787,141.6779 -3.405719,4.99506 8.173725,-6.81144 -7.719629,11.12535 11.352395,-11.12535 -4.540959,4.99506 4.086863,-0.9082 -2.724574,3.40572 5.903241,-4.768 -5.903241,7.26553 7.492581,-4.99505 -4.540958,5.90324 7.265528,-1.58933 -8.854864,2.72457 7.265534,-0.68114 -7.492581,1.58933 h 6.130291 l -0.22705,2.72458 -5.222098,1.58933 3.40572,-3.40571 -3.178673,-0.4541 -3.17867,-6.35734 -5.449151,3.40572"
       id="path8" /><path
       style="fill:none;stroke:#000000;stroke-width:1.365;stroke-dasharray:none"
       d="m 88.16763,154.52208 3.370691,-3.12993 2.455788,2.60025 -0.770445,4.04482 -2.792857,-0.81859 -1.44458,-1.58904 1.97426,-2.50394 1.203817,1.01121 0.337071,1.63719 -1.781651,0.14446 0.240763,-0.91491 0.433374,-0.48152"
       id="path9" /><path
       style="fill:none;stroke:#000000;stroke-width:1.365;stroke-dasharray:none"
       d="m 150.9882,149.11996 9.34123,4.58569 -8.32218,-6.45394 -1.69841,3.56665 3.73649,3.56665 -11.20947,-6.45394 -5.26506,4.5857 -8.15234,0.33968 -12.73804,12.90787"
       id="path10" /><path
       style="fill:none;stroke:#000000;stroke-width:1.365;stroke-dasharray:none"
       d="m 143.34538,149.62948 -3.39681,2.20792 6.2841,1.52857 -6.96346,-1.01904 1.18888,2.20792 -3.73649,0.8492 -9.85075,5.60474 8.49203,-7.30314 h -4.5857 l -1.6984,1.35872 v -0.33968"
       id="path11" /><path
       style="fill:none;stroke:#000000;stroke-width:1.365;stroke-dasharray:none"
       d="m 114.47249,168.65161 c 0,0 8.15235,-1.01904 2.54761,16.30469"
       id="path12" /><path
       style="fill:none;stroke:#000000;stroke-width:1.365;stroke-dasharray:none"
       d="m 111.58521,176.9738 c 0,0 5.26505,3.90633 4.75553,8.32218 -0.50952,4.41585 -7.81266,4.07617 -7.81266,4.07617"
       id="path13" /><path
       style="fill:none;stroke:#000000;stroke-width:1.365;stroke-dasharray:none"
       d="m 106.99951,182.74838 c 0,0 4.92538,6.62377 -2.20792,15.28564 0,0 -1.01905,1.52857 -6.793622,-5.09521"
       id="path14" /><path
       style="fill:none;stroke:#000000;stroke-width:1.365;stroke-dasharray:none"
       d="m 100.54557,195.48642 c 0,0 -0.16984,4.92537 -2.377762,5.77457 -2.207927,0.8492 -8.831707,1.01904 -10.020591,0.33968 -1.188884,-0.67936 -1.188884,-4.75554 -1.188884,-4.75554"
       id="path15" /><path
       style="display:inline;opacity:1;fill:none;stroke:#000000;stroke-width:1.365;stroke-dasharray:none"
       d="m 79.867071,164.16505 4.098586,-1.77237 -1.218498,1.66159 3.987815,-0.99695 -1.107725,1.55082 6.867903,-2.10468 -1.440045,1.9939 5.538631,-1.88313 -1.661588,2.10468 6.42481,-2.21545 -0.22154,2.10468 4.4309,-2.54777 -1.32927,2.76931 4.65245,-2.437 -3.76627,2.99087 4.09859,-1.44005"
       id="path16" /><path
       style="fill:none;stroke:#000000;stroke-width:1.365;stroke-dasharray:none"
       d="m 38.450165,86.388032 v 1.747734 l 1.498058,-1.747734 -0.749031,3.37063 2.496765,-3.495469 -0.873869,2.996115 1.622899,-1.747734 -0.249677,2.621603 2.621603,-1.373222 -1.248384,3.370633 1.123546,-0.124839 -1.248384,2.746442 h 0.998707 l -1.373222,1.997411 1.373222,-0.124839 -3.370633,3.745147 h 1.373222 l -0.873869,6.24191"
       id="path17" /><path
       style="fill:none;stroke:#000000;stroke-width:1.365;stroke-dasharray:none"
       d="m 161.06805,84.405855 -9.91188,6.504673 2.3231,0.464619 -4.18157,1.858475 4.0267,-0.154871 -2.78772,1.238986 2.16822,0.464619 -2.78771,2.477968 4.49132,0.774367 -3.40721,2.323099 1.54873,0.46462 -1.08411,1.23898 1.85848,1.54873"
       id="path18" /><path
       style="fill:none;stroke:#000000;stroke-width:1.365;stroke-dasharray:none"
       d="m 165.92944,96.987798 -3.83009,5.189152 4.3243,-1.60616 -0.86486,3.21233 -5.43626,3.45944 3.21233,-4.20075 -5.3127,6.67178 h 1.11196 l -3.45944,3.21233"
       id="path19" /><path
       style="fill:none;stroke:#000000;stroke-width:1.365;stroke-dasharray:none"
       d="m 60.169115,194.58948 4.937892,-4.57212 2.011733,-4.57212 0.914424,1.46307 4.937889,-4.755 0.914427,1.46308 1.828847,-1.82885 4.755007,-0.54865 -2.377503,1.46307 3.109042,-2.74327 2.926156,0.73154 -4.023465,3.47481 4.023465,-1.82885 -0.731538,2.01174 3.657698,-2.56039 5.852313,-1.2802 -5.852313,2.92616 5.120775,-1.09731 3.474812,-0.91442 -5.486545,4.20635 -1.46308,-1.46308 h -4.572122"
       id="path20" /><path
       style="fill:none;stroke:#000000;stroke-width:1.365;stroke-dasharray:none"
       d="m 72.254689,165.92507 -2.420904,3.53825 0.186222,-6.14538 -3.724468,6.51782 0.744895,-6.89026 -4.096917,6.51782 2.234681,-6.14538 -8.938723,7.63517 6.51782,-10.42852 -10.242288,10.24229 -9.869842,4.84181 1.489787,-2.97957 -0.55867,-1.48979 -4.283139,2.60713 -2.048457,10.98718 -2.420905,0.37245 c 0,0 -1.676011,8.38005 -3.352023,12.47696 -1.676011,4.09692 -1.489786,12.6632 -1.489786,12.6632 l -2.234682,-10.42851 -1.489787,1.67601 2.420904,14.52542 4.096917,0.7449 1.11734,-3.1658 6.331596,-3.91069 7.821385,-8.00761 -3.724469,8.38005 2.793352,-4.28313 3.165798,-0.7449 0.55867,-2.4209 -1.11734,6.33159 3.724468,-3.91069 1.862232,-4.84181 0.186225,4.65559 3.910692,-2.04846 -0.55867,1.67601 2.793352,-2.23468 v 2.04846 l 4.469362,-2.60713 v 2.4209 l 5.028031,-2.04845 0.931119,3.1658 4.096914,-3.35203 0.744895,2.23468 3.538243,-3.91069 1.303565,2.23468 3.165798,-2.79335"
       id="path21" /></g></svg>
